<?xml version="1.0" encoding="utf-8"?>
<!-- Generator: Adobe Illustrator 19.2.1, SVG Export Plug-In . SVG Version: 6.00 Build 0)  -->
<svg version="1.1" id="layer" xmlns="http://www.w3.org/2000/svg" xmlns:xlink="http://www.w3.org/1999/xlink" x="0px" y="0px"
	 viewBox="0 0 652 652" style="enable-background:new 0 0 652 652;" xml:space="preserve">
<style type="text/css">
	.st0{fill:#E50D02;}
	.st1{fill:#231815;}
	.st2{fill-rule:evenodd;clip-rule:evenodd;}
</style>
<g>
	<path class="st0" d="M88.6,352c-16.9,0-30.7-13.8-30.7-30.7c0-16.9,13.8-30.7,30.7-30.7c16.9,0,30.7,13.8,30.7,30.7
		C119.3,338.2,105.5,352,88.6,352 M143.3,349.9c-3.9,0.2-14.3,0.8-14.3,0.8l4.7-3.6c8.4-6.4,13.7-15.9,16.5-21.9
		c-3.5,1.8-12.8,6.5-12.8,6.5l2.9-5.2c5.1-9.2,6.1-20.1,6.2-26.7c-2.5,3-9,11.1-9,11.1l0.5-5.9c0.1-1.1,0.1-2.3,0.1-3.4
		c0-9.3-3-18.1-5.4-23.5c-1,3.8-3.7,13.8-3.7,13.8l-2-5.6c-3.5-10-10.8-18-15.7-22.5c0.6,3.9,2.3,14.2,2.3,14.2l-4.1-4.3
		c-7.2-7.7-17.2-12-23.5-14.1c2.1,3.3,4.6,7,4.6,7l3.3,5l-5.5-2.3c-9.7-4.1-20.6-4-27.2-3.3c3.3,2.1,12,7.8,12,7.8l-6,0.1
		c-10.5,0.2-20.4,4.8-26.2,8c3.9,0.6,14.2,2.2,14.2,2.2l-5.4,2.5c-9.5,4.5-16.7,12.7-20.7,18c3.8-1,13.8-3.7,13.8-3.7l-3.9,4.5
		c-6.9,8-10.1,18.4-11.6,24.8c3-2.5,11.1-9,11.1-9l-1.7,5.7c-1.4,4.6-1.9,9.4-1.9,13.8c0,5.3,0.7,10.1,1.4,13.6
		c1.8-3.5,6.5-12.8,6.5-12.8l0.8,5.9c1.3,10.5,6.9,19.8,10.7,25.2c0.2-3.9,0.7-14.3,0.7-14.3l3.1,5.1c5.5,9,14.3,15.3,20,18.7
		c-1.4-3.7-5.1-13.4-5.1-13.4l4.9,3.4c8.7,6,19.3,8.2,25.9,8.9c-2.8-2.8-10.1-10.1-10.1-10.1l5.9,1.1c10.4,2,21-0.4,27.3-2.4
		c-3.7-1.4-13.4-5.1-13.4-5.1l5.8-1.4C129.6,360.8,138.3,354.3,143.3,349.9"/>
	<path d="M157.2,317.5c0,0-7.9,4-11.4,5.8c3.6-9.1,4.3-18.7,4.3-24.5c0-1.8-0.1-3.3-0.1-4.2l-0.3-4.7c0,0-5.6,6.9-8,10
		c-0.5-12.8-5.9-24.4-7.8-28l-2.2-4.2c0,0-2.3,8.6-3.3,12.3c-5.7-11.5-15.4-19.8-18.5-22.3l-3.7-2.9c0,0,1.4,8.8,2,12.6
		c-9.9-8.2-22.1-11.8-26-12.8l-4.6-1.2l2.6,3.9c0,0,2.3,3.5,4.4,6.7c-12.4-3.5-25-1.9-29-1.2l-4.6,0.8c0,0,7.4,4.8,10.7,6.9
		c-12.7,1.8-23.6,8.5-26.9,10.7l-3.9,2.6c0,0,8.8,1.4,12.6,2c-10.9,6.8-18.1,17.4-20.2,20.8l-2.5,4c0,0,8.6-2.3,12.3-3.3
		c-7.1,10.7-9.5,23.2-10.1,27.2l-0.7,4.6c0,0,6.9-5.6,9.9-8c-0.6,3.3-0.8,6.5-0.8,9.6c0,8.9,1.9,16.5,2.7,19.4l1.3,4.5
		c0,0,4-7.9,5.8-11.3c3.1,12.5,10.9,22.6,13.5,25.7l3,3.6c0,0,0.5-8.9,0.7-12.7c7.9,10.1,19.1,16.2,22.8,18l4.2,2.1
		c0,0-3.2-8.3-4.6-11.9c11.3,6,24.1,7,28.1,7.2l4.7,0.2c0,0-6.3-6.3-9-9c12.8,0.9,24.9-3.4,28.6-4.9l4.4-1.7c0,0-8.3-3.2-11.9-4.6
		c12-4.4,21.3-13.2,24.1-16.1l3.3-3.4c0,0-8.9,0.5-12.7,0.7c9.2-8.9,14.1-20.7,15.5-24.5L157.2,317.5z M133.8,347.1l-4.7,3.6
		c0,0,10.4-0.6,14.3-0.8c-5,4.4-13.7,10.9-24,13.3l-5.8,1.4c0,0,9.7,3.7,13.4,5.1c-6.3,2-16.9,4.4-27.3,2.4l-5.9-1.1
		c0,0,7.4,7.4,10.1,10.1c-6.6-0.8-17.3-2.9-25.9-8.9l-4.9-3.4c0,0,3.7,9.7,5.1,13.4c-5.7-3.4-14.6-9.7-20-18.7l-3.1-5.1
		c0,0-0.5,10.4-0.7,14.3c-3.8-5.4-9.4-14.8-10.7-25.2l-0.8-5.9c0,0-4.7,9.3-6.5,12.8c-0.7-3.5-1.4-8.3-1.4-13.6
		c0-4.4,0.5-9.2,1.9-13.8l1.7-5.7c0,0-8.1,6.6-11.1,9c1.4-6.5,4.7-16.9,11.6-24.8l3.9-4.5c0,0-10.1,2.7-13.8,3.7
		c4-5.3,11.2-13.5,20.7-18l5.4-2.5c0,0-10.3-1.6-14.2-2.2c5.8-3.2,15.7-7.8,26.2-8l6-0.1c0,0-8.7-5.7-12-7.8
		c6.6-0.6,17.5-0.7,27.2,3.3l5.5,2.3l-3.3-5c0,0-2.4-3.7-4.6-7c6.3,2.1,16.3,6.4,23.5,14.1l4.1,4.3c0,0-1.6-10.3-2.3-14.1
		c4.9,4.5,12.3,12.5,15.7,22.5l2,5.6c0,0,2.7-10.1,3.7-13.8c2.3,5.4,5.4,14.2,5.4,23.5c0,1.1,0,2.2-0.1,3.4l-0.5,5.9
		c0,0,6.5-8.1,9-11.1c-0.1,6.6-1.1,17.4-6.2,26.7l-2.9,5.2c0,0,9.3-4.7,12.8-6.5C147.5,331.2,142.1,340.7,133.8,347.1"/>
	<path class="st1" d="M57.9,321.2c0,16.9,13.8,30.7,30.7,30.7c16.9,0,30.7-13.8,30.7-30.7c0-16.9-13.8-30.7-30.7-30.7
		C71.6,290.5,57.9,304.3,57.9,321.2 M61.5,321.2c0-14.9,12.1-27.1,27.1-27.1c14.9,0,27.1,12.1,27.1,27.1c0,14.9-12.1,27.1-27.1,27.1
		C73.7,348.3,61.5,336.2,61.5,321.2"/>
	<path class="st2" d="M353.2,360.5l-0.5-40c0-19.1-19.6-22.1-47.2-22.1c-9.8,0-11.8,3.7-11.8,6.4c0,7.2,7.7,6.4,15.2,6.4
		c6.7,0,13.2,0.2,13.2,5.2c0,5.1-2.1,6.5-14,6.5c-28.5,0-40.2,13.8-38.6,25.8c1.5,11.7,13.4,18.8,33.2,18.8h41.1
		C349.9,367.6,353.9,365.8,353.2,360.5 M317.7,354.7c-9.3,4.4-19,3.3-21.7-2.3c-2.6-5.6,2.8-13.7,12.2-18c9.3-4.4,19-3.3,21.7,2.3
		C332.5,342.3,327.1,350.4,317.7,354.7"/>
	<path class="st2" d="M249.8,339.2c-1-1.3-1.3-2.9-1.3-4.8c0-2.1,1.7-4.5,5.3-7.5c2.7-1.7,4.6-3,6-4c1.7-1.3,2.7-2.1,5-5.1
		c2.7-4,4-8,4-12.5c0-17.6-14.3-27.5-38.9-27.5H202c-12.4,0-28.2,2.5-28.2,27.2v52c0,10,5.3,10.3,14,10.3c7.6,0,15.6-1.3,15.6-8.2
		v-15.6c0-3.8,3-6.5,6.9-6.5c5.9,0,6.4,1.3,14.9,11.5l12,13.6c2.7,2.6,6.6,5.3,12.3,5.3h12c6,0,9.7-1.6,9-4.3
		C268.7,357.9,249.8,339.2,249.8,339.2 M224,319.9c-11,5.1-22.4,3.9-25.5-2.7c-3.1-6.6,3.3-16.1,14.3-21.2c11-5.1,22.4-3.9,25.5,2.7
		C241.4,305.3,235,314.7,224,319.9"/>
	<path class="st2" d="M424.3,354.8h-12.4c-6.2,0-16.3-0.2-8.4-8c1.4-1.4,25.9-28,25.9-28c4.7-4.7,8.9-7.8,11.2-13.9
		c1.5-4.1-1.8-6.5-7.5-6.5h-51.3c-6,0-9.8,2.4-9.8,6.2c0,4.5,3.9,6.5,8.5,6.5l5.5,0c5.8,0,17.3-0.5,12.2,4.6
		c-2.9,2.8-30.8,31.3-30.8,31.3c-4.8,4.4-9.1,10.2-9.1,14.1c0,5.4,2.5,6.6,8.3,6.6h53.6c8.1,0,15.7-2.2,16.3-6.3
		C437,358,431.1,354.8,424.3,354.8"/>
	<path class="st2" d="M591.3,298.6c-6.5,0-14.2-0.7-29.8,2.2c-15.5,2.9-20,5.8-20,12.2l0,44.2c0,6.7,1.8,10.3,15.4,10.3
		c14.2,0,16.2-3.3,16.2-9.8l-0.1-7.7c0-27.2-2.8-36.2,15.4-38.8c14.5-2,32.3,7.7,32.3-4.3C620.7,302.1,608.8,298.6,591.3,298.6"/>
	<path class="st2" d="M533.4,321.9l-0.1-0.4l-0.1-0.5c-4.8-15.4-27.7-23.5-44.9-23.5h-3.3c-17.1,0-40,8.1-44.8,23.5l-0.2,0.5
		l-0.1,0.4c-1,3.6-1.6,7.4-1.6,11.3c0,4,0.5,7.7,1.5,11.4l0.2,0.6c4.4,15.6,27.5,23.4,44.8,23.4h3.4c17.7,0,41.7-8.2,45.3-24.5
		c0.9-3.5,1.4-7.2,1.4-10.9C534.9,329.3,534.4,325.5,533.4,321.9 M494.4,349.2c-14.6,6.8-29.9,5.2-34-3.5
		c-4.1-8.8,4.5-21.5,19.1-28.3c14.7-6.8,29.9-5.2,34,3.6C517.6,329.7,509.1,342.4,494.4,349.2"/>
	<path class="st1" d="M154.8,355.2c3.4,0,6.2,2.8,6.2,6.2c0,3.4-2.8,6.2-6.2,6.2c-3.4,0-6.2-2.8-6.2-6.2
		C148.7,358,151.4,355.2,154.8,355.2 M154.8,366.1c2.6,0,4.7-2.1,4.7-4.7c0-2.6-2.1-4.7-4.7-4.7c-2.6,0-4.7,2.1-4.7,4.7
		C150.2,364,152.3,366.1,154.8,366.1 M153.9,364.1c0,0.5-0.2,0.8-0.8,0.8c-0.6,0-0.8-0.3-0.8-0.8v-5.2c0-0.4,0.1-0.7,0.8-0.7h1.9
		c1.4,0,2.5,0.4,2.5,2c0,1.2-0.6,1.8-1.7,1.9l1.2,2c0.1,0.1,0.1,0.3,0.1,0.4c0,0.4-0.2,0.6-0.8,0.6c-0.5,0-0.7-0.4-0.9-0.8l-1.1-2
		h-0.5V364.1z M155.1,360.9c0.6,0,0.9-0.1,0.9-0.7c0-0.6-0.3-0.8-0.9-0.8h-1.3v1.5H155.1z"/>
	<path d="M594.8,355.2c3.4,0,6.2,2.8,6.2,6.2c0,3.4-2.8,6.2-6.2,6.2c-3.4,0-6.2-2.8-6.2-6.2C588.6,358,591.4,355.2,594.8,355.2
		 M594.8,366.1c2.6,0,4.7-2.1,4.7-4.7c0-2.6-2.1-4.7-4.7-4.7s-4.7,2.1-4.7,4.7C590.1,364,592.2,366.1,594.8,366.1 M593.8,364.1
		c0,0.5-0.2,0.8-0.8,0.8c-0.6,0-0.8-0.3-0.8-0.8v-5.2c0-0.4,0.1-0.7,0.8-0.7h1.9c1.4,0,2.5,0.4,2.5,2c0,1.2-0.6,1.8-1.7,1.9l1.2,2
		c0.1,0.1,0.1,0.3,0.1,0.4c0,0.4-0.2,0.6-0.8,0.6c-0.5,0-0.7-0.4-0.9-0.8l-1.1-2h-0.5V364.1z M595.1,360.9c0.6,0,0.9-0.1,0.9-0.7
		c0-0.6-0.3-0.8-0.9-0.8h-1.3v1.5H595.1z"/>
</g>
</svg>
